<?xml version="1.0" standalone="no"?>
<!DOCTYPE svg PUBLIC "-//W3C//DTD SVG 20010904//EN"
 "http://www.w3.org/TR/2001/REC-SVG-20010904/DTD/svg10.dtd">
<svg version="1.0" xmlns="http://www.w3.org/2000/svg"
 width="1024.000000pt" height="1536.000000pt" viewBox="0 0 1024.000000 1536.000000"
 preserveAspectRatio="xMidYMid meet">

<g transform="translate(0.000000,1536.000000) scale(0.100000,-0.100000)"
fill="#000000" stroke="none">
<path d="M5550 14328 c0 -8 60 -136 134 -284 73 -148 148 -303 166 -344 48
-109 138 -360 130 -360 -10 0 -76 96 -145 210 -124 204 -268 370 -425 488 -84
64 -281 185 -288 178 -2 -3 43 -56 101 -118 105 -113 201 -228 268 -323 51
-73 129 -203 129 -216 0 -6 -52 40 -115 102 -190 186 -339 288 -560 384 -84
36 -253 95 -271 95 -15 0 17 -26 114 -93 292 -202 552 -457 674 -662 70 -118
168 -339 155 -351 -2 -2 -27 33 -55 79 -86 142 -170 247 -291 368 -156 155
-264 226 -496 326 -186 81 -540 200 -567 191 -6 -2 24 -26 68 -53 269 -165
400 -263 525 -392 129 -133 192 -255 229 -448 11 -61 25 -132 30 -158 6 -26
10 -62 10 -79 l0 -30 -47 38 c-27 21 -91 75 -143 119 -280 239 -592 438 -898
572 -295 129 -748 258 -881 251 l-56 -3 44 -28 c23 -16 125 -74 225 -129 199
-110 339 -199 431 -273 109 -88 245 -217 245 -232 0 -14 -3 -14 -22 -1 -41 27
-370 170 -514 223 -307 115 -526 179 -735 214 -224 39 -301 39 -207 0 56 -22
368 -189 473 -252 147 -88 415 -268 415 -278 0 -13 -12 -11 -56 7 -47 20 -165
56 -294 90 -242 63 -673 73 -1055 24 -189 -25 -453 -76 -443 -85 2 -3 101 -21
219 -41 219 -36 450 -85 517 -108 l37 -13 -60 -13 c-217 -44 -387 -106 -641
-232 -197 -98 -269 -142 -420 -254 -108 -81 -157 -124 -124 -111 63 25 281 91
386 117 135 33 415 80 474 80 31 0 25 -5 -48 -35 -207 -85 -408 -232 -702
-513 l-105 -101 29 -54 30 -54 -38 -33 c-138 -122 -301 -411 -322 -571 -5 -37
-25 -89 -65 -164 -96 -182 -189 -448 -189 -539 0 -23 4 -26 33 -26 17 0 47 9
65 20 18 11 35 20 38 20 7 0 3 -46 -20 -235 -18 -154 -36 -391 -36 -494 l0
-74 43 6 c23 4 57 9 76 13 33 7 34 6 26 -17 -4 -13 -10 -112 -12 -220 -4 -173
-3 -197 11 -202 10 -4 60 19 128 58 62 36 114 61 116 56 5 -15 -37 -171 -86
-313 -54 -161 -51 -177 23 -134 26 15 85 57 132 92 47 36 89 63 94 62 9 -4
-144 -377 -194 -473 -20 -38 -64 -106 -97 -150 -34 -44 -64 -91 -68 -105 -10
-36 -6 -214 7 -360 39 -414 145 -879 288 -1267 53 -145 69 -164 213 -263 52
-36 202 -145 334 -244 131 -98 266 -191 300 -207 112 -52 207 -57 421 -23 150
23 150 24 174 -43 65 -178 93 -239 163 -360 124 -211 195 -306 381 -505 l102
-110 16 -91 c18 -101 54 -245 94 -376 14 -47 25 -88 25 -93 0 -4 -24 -8 -54
-8 -29 0 -121 -9 -202 -19 -82 -11 -189 -22 -239 -26 -306 -21 -581 -97 -857
-236 -352 -178 -613 -405 -890 -774 -49 -65 -117 -137 -191 -203 -141 -126
-397 -388 -508 -520 -83 -99 -249 -343 -332 -488 l-47 -81 0 -1021 0 -1022
383 0 383 0 181 278 c175 269 319 496 646 1017 406 650 750 1082 1152 1450
132 121 259 217 487 368 112 74 236 162 275 196 40 33 75 61 77 61 2 0 6 -17
9 -37 4 -20 21 -84 38 -141 l31 -103 -32 -52 c-414 -656 -529 -953 -491 -1266
22 -179 96 -339 204 -438 134 -124 361 -204 667 -235 349 -35 760 74 1325 352
458 225 826 453 1330 820 98 72 161 112 163 104 8 -33 -141 -499 -195 -612
-22 -46 -85 -115 -323 -357 -360 -366 -491 -513 -691 -780 -125 -166 -315
-459 -379 -586 l-20 -39 2510 0 2510 0 0 1276 0 1276 -74 111 c-146 220 -229
321 -437 532 -113 116 -212 220 -218 232 -7 14 -11 97 -11 236 0 284 -20 406
-102 607 -78 192 -184 333 -340 450 -112 84 -232 139 -448 204 -102 30 -234
74 -295 96 -263 100 -521 144 -800 138 l-169 -3 -18 85 c-26 131 -41 324 -42
560 -1 236 7 315 30 306 8 -3 89 -22 181 -43 143 -31 187 -37 293 -37 l125 -1
76 43 c41 24 159 105 261 180 102 75 256 187 343 247 270 189 287 206 300 289
4 23 40 192 80 376 110 498 148 725 176 1028 17 198 31 164 -177 457 -173 245
-242 412 -290 705 -50 312 -115 543 -226 805 -158 374 -389 740 -665 1055
-143 163 -302 313 -528 498 l-40 32 -1 118 c-2 125 -20 236 -61 367 -37 117
-45 116 -38 -5 11 -175 -34 -435 -57 -329 -4 19 -16 149 -28 289 -12 146 -32
308 -46 380 -44 219 -131 448 -232 610 -50 80 -221 299 -267 340 l-27 25 17
-40 c91 -216 135 -346 165 -495 12 -57 20 -116 18 -131 -3 -25 -12 -15 -85 89
-45 64 -121 166 -168 225 -47 60 -131 183 -186 274 -108 178 -165 260 -328
478 -162 217 -351 429 -351 393z m80 -3107 c155 -35 368 -98 521 -155 145 -54
282 -117 294 -136 3 -5 -5 -29 -19 -52 -50 -87 -125 -338 -162 -543 -12 -68
-18 -149 -18 -255 0 -135 3 -163 22 -218 42 -118 99 -196 280 -386 155 -162
292 -330 292 -356 0 -15 -8 -13 -96 19 -113 41 -202 58 -414 76 -295 26 -627
31 -730 11 -105 -19 -207 -68 -281 -135 -35 -31 -68 -52 -90 -55 -19 -3 -185
-10 -369 -16 -184 -6 -448 -15 -586 -20 l-250 -10 -85 32 c-77 29 -93 32 -189
31 -72 -1 -155 6 -265 24 -105 18 -201 27 -280 27 -118 1 -121 0 -195 -35 -41
-20 -98 -57 -127 -83 -54 -49 -118 -124 -112 -131 2 -2 54 0 114 5 267 21 504
30 830 31 532 2 1548 44 1830 75 219 24 790 25 934 1 261 -43 420 -126 536
-279 54 -70 127 -218 146 -290 l11 -48 47 1 c25 0 76 3 113 8 l68 7 5 -35 c4
-20 8 -44 9 -53 3 -14 -9 -17 -83 -23 -47 -3 -95 -7 -106 -8 -19 -2 -21 -12
-27 -146 -12 -234 -53 -398 -138 -558 -212 -396 -575 -544 -994 -407 -212 70
-439 232 -681 486 -250 263 -347 432 -399 692 -37 183 -64 232 -151 279 -35
19 -56 22 -160 22 -106 0 -126 -3 -168 -24 -86 -42 -122 -112 -153 -301 -47
-281 -112 -433 -285 -664 -167 -221 -362 -412 -516 -503 -34 -21 -63 -41 -63
-45 0 -4 21 -10 48 -15 180 -30 337 30 488 189 91 96 152 189 249 383 119 234
175 413 210 666 18 134 36 173 87 194 73 29 217 15 237 -24 16 -28 24 -495 12
-618 -24 -233 -11 -389 54 -658 77 -315 16 -560 -160 -641 -86 -40 -157 -31
-345 46 -75 30 -121 43 -160 44 l-55 1 2 -34 c2 -58 49 -92 204 -150 142 -53
243 -81 294 -81 40 0 142 -49 189 -90 20 -18 58 -68 83 -112 82 -142 136 -169
462 -233 102 -19 205 -46 230 -58 l46 -22 -65 -3 c-36 -2 -128 5 -205 15 -231
30 -414 17 -542 -38 -40 -17 -49 -18 -111 -4 -157 33 -345 29 -597 -11 -49 -7
-148 -14 -220 -14 -133 0 -180 -11 -180 -40 0 -23 59 -56 122 -68 32 -7 198
-14 368 -17 453 -8 801 -53 942 -121 52 -26 53 -47 3 -95 -117 -112 -404 -181
-679 -164 -90 5 -116 4 -122 -7 -29 -45 22 -171 96 -236 111 -97 235 -113 628
-81 312 26 492 -14 547 -121 30 -59 34 -110 15 -194 -55 -250 -268 -456 -556
-539 -167 -49 -268 -61 -494 -61 -184 0 -220 3 -289 22 -88 24 -195 79 -283
143 -159 118 -681 679 -989 1064 -255 318 -396 595 -490 963 -19 73 -66 300
-104 505 -106 560 -115 599 -165 708 -82 178 -129 354 -143 538 l-7 84 -79 -2
-79 -2 6 46 c4 26 9 51 13 56 3 5 34 9 69 9 63 0 65 1 70 28 18 98 50 206 81
279 l37 86 -6 211 c-8 256 -31 566 -52 701 -46 296 -55 370 -55 477 0 142 16
349 35 441 46 226 241 388 620 516 347 116 665 200 790 208 105 7 164 -6 305
-69 234 -104 399 -91 895 71 155 51 216 67 365 95 14 2 104 3 200 1 131 -2
199 -8 270 -24z m2282 -1358 c33 -100 48 -204 48 -326 0 -123 -5 -139 -39
-131 -14 4 -45 17 -68 31 l-43 24 6 137 c2 75 7 164 9 197 2 33 4 82 4 108 1
47 2 48 29 45 24 -3 30 -11 54 -85z m-4461 -5200 c182 -219 440 -484 549 -567
105 -78 256 -146 600 -268 107 -39 250 -89 317 -113 66 -24 177 -56 245 -71
111 -25 143 -28 333 -29 l210 -1 135 -41 c74 -23 234 -73 355 -111 247 -79
489 -153 675 -207 156 -45 170 -54 170 -104 0 -103 -63 -261 -168 -421 -70
-106 -271 -310 -407 -412 -124 -93 -442 -306 -635 -426 -644 -398 -1306 -652
-1700 -652 -220 0 -450 83 -500 179 -41 81 -22 168 81 373 123 245 157 412
146 718 -6 184 -80 582 -162 870 -43 151 -236 963 -306 1285 -6 28 -13 58 -16
68 -2 9 -2 17 0 17 3 0 38 -39 78 -87z"/>
<path d="M5568 8906 c-343 -60 -537 -264 -514 -541 24 -277 133 -475 425 -765
90 -89 196 -184 251 -223 203 -145 457 -237 649 -237 228 1 462 151 610 392
143 231 182 629 91 908 -80 243 -254 395 -520 455 -102 24 -872 31 -992 11z"/>
<path d="M3190 8830 c-209 -10 -466 -36 -549 -56 -276 -63 -433 -300 -432
-648 0 -257 64 -512 177 -706 21 -37 76 -104 128 -156 74 -73 108 -99 176
-132 220 -109 492 -120 709 -29 125 51 243 138 397 292 340 337 488 632 471
935 -17 293 -167 446 -481 489 -111 16 -400 21 -596 11z"/>
</g>
</svg>
